<?xml version="1.0" standalone="no"?>
<!DOCTYPE svg PUBLIC "-//W3C//DTD SVG 20010904//EN"
 "http://www.w3.org/TR/2001/REC-SVG-20010904/DTD/svg10.dtd">
<svg version="1.0" xmlns="http://www.w3.org/2000/svg"
 width="888.000000pt" height="296.000000pt" viewBox="0 0 888.000000 296.000000"
 preserveAspectRatio="xMidYMid meet">

<g transform="translate(0.000000,296.000000) scale(0.100000,-0.100000)"
fill="#000000" stroke="none">
<path d="M4590 2939 c-63 -25 -96 -79 -106 -172 -19 -191 35 -294 161 -305 32
-3 67 1 85 8 28 11 33 10 54 -9 l22 -21 24 25 23 25 -20 23 c-18 20 -19 25 -7
52 8 19 13 72 14 140 0 134 -20 186 -85 222 -43 24 -120 30 -165 12z m131 -95
c21 -22 24 -37 28 -115 1 -49 0 -97 -3 -106 -6 -14 -8 -14 -24 1 -17 15 -20
14 -42 -9 -22 -23 -22 -26 -7 -43 24 -26 21 -32 -13 -32 -48 0 -75 35 -84 105
-10 89 2 174 30 202 32 32 83 31 115 -3z"/>
<path d="M5013 2929 c-24 -12 -52 -37 -65 -57 -21 -34 -23 -49 -23 -167 0
-118 2 -133 23 -167 76 -122 283 -94 322 43 l9 29 -50 0 c-36 0 -49 -4 -49
-14 0 -22 -49 -56 -81 -56 -15 0 -41 11 -56 24 -28 24 -28 26 -28 139 0 108 1
117 24 141 32 34 88 36 119 3 12 -13 22 -29 22 -35 0 -8 18 -12 49 -12 l50 0
-9 29 c-30 106 -151 153 -257 100z"/>
<path d="M5360 2705 l0 -245 45 0 45 0 0 100 0 100 38 -1 37 0 47 -100 47 -99
51 0 c27 0 50 2 50 5 0 3 -23 51 -51 107 -29 58 -47 104 -41 106 80 26 103
154 41 221 -38 40 -80 51 -199 51 l-110 0 0 -245z m231 147 c15 -13 22 -30 22
-51 0 -48 -23 -64 -98 -69 l-65 -4 0 71 0 71 59 0 c42 0 65 -5 82 -18z"/>
<path d="M5810 2705 l0 -245 45 0 45 0 0 245 0 245 -45 0 -45 0 0 -245z"/>
<path d="M6198 2295 l-3 -645 650 0 650 0 -645 645 c-355 355 -646 645 -647
645 -2 0 -4 -290 -5 -645z m752 -300 l205 -205 -410 0 -410 0 205 205 c113
113 205 205 205 205 0 0 92 -92 205 -205z"/>
<path d="M7570 2296 l0 -646 650 0 c358 0 650 2 650 4 0 2 -292 293 -650 646
l-650 642 0 -646z m750 -301 l205 -205 -410 0 -410 0 205 205 c113 113 205
205 205 205 0 0 92 -92 205 -205z"/>
<path d="M2328 2173 l-3 -128 -27 -3 c-24 -3 -30 3 -52 46 -35 69 -67 92 -127
92 -42 0 -49 -3 -49 -20 0 -16 7 -20 33 -20 39 0 72 -21 92 -60 8 -16 15 -31
15 -35 0 -3 -67 -5 -150 -5 l-150 0 0 70 0 70 -57 0 c-81 -1 -113 -31 -113
-105 0 -51 36 -85 90 -85 22 0 40 -4 40 -10 0 -23 -41 -50 -75 -50 -29 0 -35
-4 -35 -21 0 -20 4 -21 57 -17 62 5 93 30 93 74 l0 24 230 0 230 0 0 155 c0
148 -1 155 -20 155 -18 0 -20 -8 -22 -127z m-458 -83 c0 -56 -11 -67 -53 -51
-22 9 -27 17 -27 44 0 40 15 57 52 57 27 0 28 -2 28 -50z"/>
<path d="M2450 2145 c0 -148 1 -155 20 -155 19 0 20 7 20 155 0 148 -1 155
-20 155 -19 0 -20 -7 -20 -155z"/>
<path d="M3770 2170 l0 -130 -85 0 -85 0 0 60 c0 57 -1 60 -25 60 -24 0 -25
-3 -25 -60 0 -57 -1 -60 -25 -60 -20 0 -30 10 -50 49 -34 68 -66 91 -126 91
-42 0 -49 -3 -49 -20 0 -16 7 -20 33 -20 39 0 72 -21 92 -60 8 -16 15 -31 15
-35 0 -3 -47 -5 -105 -5 l-105 0 0 70 0 70 -60 0 c-80 0 -110 -26 -110 -95 0
-59 32 -95 85 -95 28 0 35 -4 35 -20 0 -25 -29 -40 -74 -40 -29 0 -36 -4 -36
-20 0 -17 7 -20 45 -20 65 0 103 22 111 65 l6 35 167 1 c91 0 222 2 291 2
l125 2 3 153 3 152 -26 0 -25 0 0 -130z m-590 -86 l0 -56 -27 7 c-37 9 -45 18
-45 49 0 34 19 56 48 56 22 0 24 -4 24 -56z"/>
<path d="M4240 2170 l0 -130 -85 0 -85 0 0 60 c0 57 -1 60 -25 60 l-25 0 0
-103 c0 -106 -7 -127 -42 -127 -11 0 -18 -7 -18 -20 0 -15 7 -20 28 -20 35 0
72 26 72 50 0 52 -13 50 341 50 l329 0 0 94 0 94 -35 6 c-46 9 -112 -10 -126
-35 -6 -12 -9 -41 -7 -65 l3 -44 -37 0 -38 0 0 45 c0 36 -6 52 -26 72 -24 24
-30 25 -100 21 l-74 -5 0 64 c0 61 -1 63 -25 63 l-25 0 0 -130z m190 -52 c11
-12 20 -34 20 -50 l0 -28 -80 0 -80 0 0 40 c0 46 16 59 77 60 31 0 48 -6 63
-22z m250 -27 c0 -53 -10 -64 -47 -50 -50 19 -36 99 17 99 29 0 30 -1 30 -49z"/>
<path d="M2820 2269 c0 -25 33 -22 38 4 2 12 -3 17 -17 17 -15 0 -21 -6 -21
-21z"/>
<path d="M4590 2255 c0 -18 5 -25 20 -25 15 0 20 7 20 25 0 18 -5 25 -20 25
-15 0 -20 -7 -20 -25z"/>
<path d="M4664 2265 c-8 -20 4 -35 27 -35 14 0 19 7 19 25 0 18 -5 25 -20 25
-11 0 -23 -7 -26 -15z"/>
<path d="M1080 2250 c0 -13 7 -20 20 -20 13 0 20 7 20 20 0 13 -7 20 -20 20
-13 0 -20 -7 -20 -20z"/>
<path d="M1152 2253 c2 -10 13 -19 26 -21 17 -3 22 2 22 17 0 16 -6 21 -26 21
-19 0 -25 -5 -22 -17z"/>
<path d="M2780 2210 c0 -13 7 -20 20 -20 13 0 20 7 20 20 0 13 -7 20 -20 20
-13 0 -20 -7 -20 -20z"/>
<path d="M2850 2210 c0 -15 7 -20 25 -20 18 0 25 5 25 20 0 15 -7 20 -25 20
-18 0 -25 -5 -25 -20z"/>
<path d="M5415 2176 c-47 -14 -55 -37 -31 -97 l16 -39 -49 0 -49 0 5 44 c5 38
2 48 -20 70 -22 22 -35 26 -87 26 l-60 0 0 -70 0 -70 -34 0 c-32 0 -34 2 -41
46 -9 65 -41 94 -100 94 -38 0 -45 -3 -45 -20 0 -16 7 -20 34 -20 40 0 66 -28
66 -72 0 -27 -2 -28 -55 -28 -52 0 -55 -1 -55 -25 l0 -25 115 0 115 0 0 -33
c0 -37 20 -61 61 -71 56 -13 109 28 109 84 0 19 9 20 208 22 114 1 216 1 227
-1 120 -14 150 6 149 96 0 69 -23 93 -89 93 -53 0 -77 -25 -85 -88 l-5 -47
-82 -3 -82 -3 6 35 c9 56 -3 86 -42 102 -40 16 -47 16 -100 0z m-171 -42 c19
-7 22 -64 4 -82 -7 -7 -25 -12 -40 -12 -27 0 -28 2 -28 50 0 46 2 50 24 50 13
0 31 -3 40 -6z m264 -32 c7 -67 -48 -86 -73 -26 -24 58 -21 66 28 62 40 -3 42
-5 45 -36z m330 26 c14 -14 16 -67 3 -86 -5 -8 -21 -12 -37 -10 -26 3 -29 7
-32 42 -2 21 -1 44 2 52 7 17 48 18 64 2z m-580 -160 c-2 -26 -8 -34 -27 -36
-15 -3 -30 3 -38 14 -21 29 -15 42 20 47 17 2 36 5 40 5 5 1 7 -13 5 -30z"/>
<path d="M1075 2155 c-30 -29 -34 -97 -9 -134 14 -19 24 -22 68 -20 28 1 58 0
66 -4 8 -3 119 -5 245 -4 l230 2 3 88 3 87 -26 0 c-24 0 -25 -2 -25 -64 0 -66
-7 -77 -42 -68 -15 3 -18 16 -18 63 0 52 -2 59 -20 59 -18 0 -20 -7 -20 -59 0
-43 -4 -60 -15 -65 -32 -12 -45 5 -45 55 0 46 -2 49 -25 49 -23 0 -25 -3 -25
-50 l0 -50 -35 0 -35 0 0 60 c0 57 -1 60 -25 60 -24 0 -25 -3 -25 -61 l0 -60
-37 3 -38 3 -3 68 -3 67 -60 0 c-50 0 -64 -4 -84 -25z m93 -62 c-3 -44 -5 -48
-30 -51 -23 -3 -30 2 -38 24 -14 36 10 74 46 74 24 0 25 -3 22 -47z"/>
<path d="M2950 2100 l0 -60 -98 0 c-114 0 -132 10 -132 74 0 33 -3 37 -22 34
-18 -2 -24 -10 -26 -40 -5 -54 20 -95 66 -108 20 -6 86 -10 147 -8 l110 3 3
83 c3 82 3 82 -23 82 -24 0 -25 -2 -25 -60z"/>
<path d="M1300 1925 c0 -22 4 -26 23 -23 14 2 22 10 22 23 0 13 -8 21 -22 23
-19 3 -23 -1 -23 -23z"/>
<path d="M3550 1925 c0 -20 5 -25 25 -25 20 0 25 5 25 25 0 20 -5 25 -25 25
-20 0 -25 -5 -25 -25z"/>
<path d="M2320 1735 c0 -18 5 -25 20 -25 15 0 20 7 20 25 0 18 -5 25 -20 25
-15 0 -20 -7 -20 -25z"/>
<path d="M4260 1625 c0 -128 1 -135 20 -135 18 0 20 7 20 70 0 60 3 71 21 80
35 19 49 -3 49 -81 0 -67 1 -69 25 -69 24 0 25 2 25 73 0 98 -16 122 -76 113
l-44 -6 0 45 c0 38 -3 45 -20 45 -19 0 -20 -7 -20 -135z"/>
<path d="M5180 1735 c0 -20 5 -25 25 -25 20 0 25 5 25 25 0 20 -5 25 -25 25
-20 0 -25 -5 -25 -25z"/>
<path d="M70 1737 c-14 -7 -33 -28 -42 -47 -44 -88 2 -200 83 -200 14 0 38 -9
52 -20 14 -11 32 -17 41 -14 20 8 20 13 0 35 -14 15 -14 20 -1 41 73 111 -24
260 -133 205z m86 -48 c14 -15 19 -36 19 -74 0 -61 -16 -85 -56 -85 -42 0 -63
37 -57 102 8 74 53 102 94 57z"/>
<path d="M1050 1723 c-29 -26 -34 -37 -38 -90 -7 -98 27 -143 108 -143 43 0
90 33 90 65 0 23 -47 19 -53 -5 -7 -28 -72 -28 -87 -1 -18 34 -12 126 8 144
27 24 59 21 78 -8 19 -29 54 -34 54 -7 0 29 -44 63 -88 69 -33 4 -44 1 -72
-24z"/>
<path d="M2920 1620 l0 -130 25 0 c23 0 25 3 25 50 0 46 2 50 23 50 18 0 29
-11 47 -50 18 -39 29 -50 47 -50 28 0 29 0 -2 60 -20 39 -22 51 -11 57 23 14
38 53 31 84 -9 40 -49 59 -125 59 l-60 0 0 -130z m134 68 c17 -27 -5 -52 -48
-56 l-36 -3 0 41 0 41 36 -3 c22 -2 42 -10 48 -20z"/>
<path d="M4560 1620 l0 -130 25 0 25 0 0 130 0 130 -25 0 -25 0 0 -130z"/>
<path d="M480 1705 c0 -16 -6 -25 -15 -25 -8 0 -15 -6 -15 -14 0 -8 7 -16 15
-20 11 -4 15 -22 15 -75 0 -73 5 -81 56 -81 17 0 24 6 24 20 0 13 -7 20 -20
20 -18 0 -20 7 -20 60 0 47 3 60 15 60 8 0 15 7 15 15 0 8 -7 15 -15 15 -9 0
-15 9 -15 25 0 18 -5 25 -20 25 -15 0 -20 -7 -20 -25z"/>
<path d="M2200 1705 c0 -16 -6 -25 -15 -25 -8 0 -15 -7 -15 -15 0 -8 7 -15 15
-15 12 0 15 -14 15 -68 0 -75 9 -92 52 -92 21 0 28 5 28 19 0 10 -9 21 -20 24
-17 4 -20 14 -20 57 0 43 3 53 20 57 11 3 20 12 20 19 0 8 -9 14 -20 14 -15 0
-20 7 -20 25 0 18 -5 25 -20 25 -15 0 -20 -7 -20 -25z"/>
<path d="M5070 1705 c0 -16 -6 -25 -15 -25 -8 0 -15 -6 -15 -14 0 -8 7 -16 15
-20 11 -4 15 -22 15 -69 0 -70 10 -87 52 -87 21 0 28 5 28 19 0 10 -9 21 -20
24 -17 4 -20 14 -20 57 0 43 3 53 20 57 11 3 20 12 20 19 0 8 -9 14 -20 14
-15 0 -20 7 -20 25 0 18 -5 25 -20 25 -15 0 -20 -7 -20 -25z"/>
<path d="M5290 1705 c0 -16 -6 -25 -15 -25 -8 0 -15 -7 -15 -15 0 -8 7 -15 15
-15 12 0 15 -14 15 -68 0 -75 9 -92 52 -92 21 0 28 5 28 20 0 11 -7 20 -15 20
-12 0 -15 13 -15 60 0 47 3 60 15 60 8 0 15 7 15 15 0 8 -7 15 -15 15 -9 0
-15 9 -15 25 0 20 -5 25 -25 25 -20 0 -25 -5 -25 -25z"/>
<path d="M5620 1705 c0 -16 -6 -25 -15 -25 -8 0 -15 -7 -15 -15 0 -8 7 -15 15
-15 12 0 15 -14 15 -68 0 -75 9 -92 52 -92 21 0 28 5 28 20 0 11 -7 20 -15 20
-12 0 -15 13 -15 60 0 47 3 60 15 60 8 0 15 7 15 15 0 8 -7 15 -15 15 -9 0
-15 9 -15 25 0 20 -5 25 -25 25 -20 0 -25 -5 -25 -25z"/>
<path d="M287 1662 c-10 -10 -17 -22 -17 -25 0 -11 45 -8 56 3 15 15 44 1 44
-21 0 -15 -7 -19 -38 -19 -43 0 -72 -23 -72 -57 0 -36 30 -51 100 -51 l65 0
-5 80 c-4 64 -9 82 -24 94 -28 20 -89 18 -109 -4z m83 -101 c0 -24 -23 -43
-44 -35 -19 7 -22 40 -3 47 27 12 47 7 47 -12z"/>
<path d="M612 1664 c-12 -8 -22 -19 -22 -25 0 -12 43 -12 56 1 15 15 44 1 44
-21 0 -15 -7 -19 -35 -19 -39 0 -75 -28 -75 -58 0 -35 31 -51 100 -50 l65 0
-3 79 c-3 67 -7 81 -25 94 -28 19 -77 19 -105 -1z m78 -108 c0 -26 -20 -39
-45 -30 -18 7 -20 40 -2 47 30 13 47 7 47 -17z"/>
<path d="M790 1585 c0 -88 1 -95 20 -95 18 0 20 7 20 66 0 64 1 66 30 77 18 7
30 19 30 29 0 21 -30 24 -48 6 -9 -9 -12 -9 -12 0 0 7 -9 12 -20 12 -19 0 -20
-7 -20 -95z"/>
<path d="M1270 1655 c-35 -37 -33 -110 4 -142 37 -31 89 -31 121 2 35 34 35
106 0 140 -34 35 -93 34 -125 0z m84 -18 c25 -18 25 -86 0 -104 -43 -32 -87
55 -48 98 20 23 25 23 48 6z"/>
<path d="M1460 1585 c0 -95 0 -95 25 -95 24 0 25 2 25 74 0 76 10 93 45 80 11
-5 15 -24 15 -80 0 -72 1 -74 25 -74 24 0 25 2 25 69 0 72 13 97 44 85 13 -5
16 -21 16 -80 0 -72 1 -74 25 -74 25 0 25 1 25 79 0 59 -4 84 -16 95 -18 19
-57 21 -86 5 -14 -8 -23 -8 -31 0 -14 14 -52 14 -78 1 -13 -7 -19 -7 -19 0 0
5 -9 10 -20 10 -19 0 -20 -7 -20 -95z"/>
<path d="M1780 1550 c0 -123 1 -130 20 -130 17 0 20 7 20 39 l0 39 39 -5 c57
-8 81 20 81 92 0 42 -5 60 -20 75 -22 22 -69 27 -88 8 -9 -9 -12 -9 -12 0 0 7
-9 12 -20 12 -19 0 -20 -7 -20 -130z m104 78 c22 -31 20 -64 -4 -88 -16 -16
-25 -18 -40 -10 -27 14 -29 94 -2 109 24 15 29 14 46 -11z"/>
<path d="M1980 1607 c0 -49 5 -80 16 -95 16 -24 53 -29 85 -12 13 7 19 7 19 0
0 -5 9 -10 20 -10 19 0 20 7 20 95 0 88 -1 95 -20 95 -18 0 -20 -7 -20 -70 0
-58 -3 -71 -19 -80 -40 -21 -51 -3 -51 76 0 72 -1 74 -25 74 -24 0 -25 -2 -25
-73z"/>
<path d="M2320 1585 c0 -88 1 -95 20 -95 19 0 20 7 20 95 0 88 -1 95 -20 95
-19 0 -20 -7 -20 -95z"/>
<path d="M2410 1585 c0 -95 0 -95 25 -95 24 0 25 2 25 74 0 76 10 93 45 80 11
-5 15 -24 15 -80 0 -72 1 -74 25 -74 25 0 25 1 25 79 0 59 -4 84 -16 95 -18
18 -56 21 -85 6 -13 -7 -19 -7 -19 0 0 5 -9 10 -20 10 -19 0 -20 -7 -20 -95z"/>
<path d="M2630 1653 c-28 -35 -27 -102 2 -138 18 -23 26 -26 60 -22 39 5 50
-7 26 -31 -15 -15 -55 -16 -63 -2 -5 8 -12 7 -22 -1 -13 -11 -13 -14 3 -26 10
-7 37 -13 60 -13 34 0 47 5 63 26 18 23 21 41 21 129 l0 102 -65 1 c-58 0 -67
-2 -85 -25z m88 -15 c20 -20 15 -96 -7 -107 -47 -25 -80 73 -36 105 23 17 28
17 43 2z"/>
<path d="M3170 1655 c-17 -18 -23 -37 -24 -71 -1 -38 3 -50 27 -70 42 -36 127
-28 127 11 0 18 -1 18 -36 5 -20 -8 -32 -7 -50 5 -38 25 -28 35 36 35 l60 0 0
33 c0 71 -91 105 -140 52z m84 -21 c25 -25 19 -34 -24 -34 -44 0 -48 5 -23 32
20 22 27 22 47 2z"/>
<path d="M3366 1667 c-12 -9 -17 -23 -14 -42 3 -28 8 -33 78 -65 23 -11 18
-35 -8 -38 -13 -2 -25 3 -28 12 -7 17 -54 22 -54 6 0 -5 9 -19 20 -30 40 -40
140 -15 140 35 0 23 -37 55 -64 55 -26 0 -51 24 -41 40 8 13 38 13 52 -1 6 -6
21 -9 34 -7 l24 3 -22 23 c-26 25 -88 30 -117 9z"/>
<path d="M3572 1673 c-18 -7 -42 -57 -42 -88 0 -30 16 -65 39 -82 37 -28 144
-3 115 27 -9 9 -17 9 -34 0 -17 -9 -26 -8 -46 5 -38 25 -28 35 36 35 59 0 60
0 60 29 0 46 -35 81 -78 80 -20 0 -43 -3 -50 -6z m66 -35 c23 -23 13 -38 -23
-38 -39 0 -48 21 -17 39 22 13 26 13 40 -1z"/>
<path d="M3748 1658 l-23 -23 22 -3 c12 -2 31 2 43 8 16 9 25 8 36 -1 27 -22
16 -39 -24 -39 -43 0 -72 -23 -72 -58 0 -38 25 -51 96 -50 l66 1 -4 80 c-3 64
-7 81 -23 93 -30 22 -91 18 -117 -8z m92 -98 c0 -21 -34 -45 -50 -35 -11 7
-13 38 -3 48 3 4 17 7 30 7 16 0 23 -6 23 -20z"/>
<path d="M3930 1585 c0 -95 0 -95 25 -95 24 0 25 2 25 63 0 65 11 87 42 87 11
0 18 7 18 20 0 23 -29 27 -48 8 -9 -9 -12 -9 -12 0 0 7 -11 12 -25 12 -25 0
-25 0 -25 -95z"/>
<path d="M4085 1655 c-19 -18 -25 -35 -25 -70 0 -59 32 -95 85 -95 34 0 75 27
75 50 0 15 -40 12 -56 -5 -20 -19 -51 -4 -56 27 -10 64 27 106 59 68 20 -23
53 -27 53 -5 0 8 -9 24 -20 35 -29 29 -84 27 -115 -5z"/>
<path d="M4660 1585 c0 -95 0 -95 25 -95 24 0 25 2 25 69 0 78 14 100 49 81
18 -9 21 -20 21 -80 0 -63 2 -70 20 -70 18 0 20 7 20 76 0 93 -10 114 -53 114
-18 0 -38 -5 -45 -12 -9 -9 -12 -9 -12 0 0 7 -11 12 -25 12 -25 0 -25 0 -25
-95z"/>
<path d="M4888 1668 c-28 -23 -29 -48 -3 -74 13 -13 33 -24 43 -24 23 0 46
-25 37 -40 -9 -15 -41 -12 -55 5 -16 19 -50 20 -50 1 0 -43 104 -62 140 -26
35 35 18 76 -35 86 -37 7 -61 27 -50 44 8 13 38 13 52 -1 6 -6 21 -9 34 -7
l24 3 -22 23 c-26 25 -89 30 -115 10z"/>
<path d="M5180 1585 c0 -95 0 -95 25 -95 25 0 25 0 25 95 0 95 0 95 -25 95
-25 0 -25 0 -25 -95z"/>
<path d="M5400 1607 c0 -102 12 -117 95 -115 l65 1 0 93 c0 87 -1 94 -20 94
-18 0 -20 -7 -20 -70 0 -60 -3 -71 -21 -80 -35 -19 -49 3 -49 81 0 67 -1 69
-25 69 -24 0 -25 -2 -25 -73z"/>
<path d="M5755 1655 c-19 -18 -25 -35 -25 -70 0 -61 32 -95 88 -95 45 0 83 23
66 40 -7 7 -19 8 -35 2 -29 -11 -69 2 -69 23 0 12 13 15 60 15 65 0 68 3 49
59 -20 56 -91 70 -134 26z m95 -40 c0 -10 -11 -15 -35 -15 -38 0 -48 22 -18
39 21 11 53 -3 53 -24z"/>
<path d="M6525 1250 l320 -320 -48 -48 c-26 -26 -47 -52 -47 -57 0 -6 91 -101
202 -212 l203 -203 -415 0 -416 0 -69 -70 -69 -70 659 0 660 0 -330 330 -330
330 320 320 320 320 -640 0 -640 0 320 -320z"/>
<path d="M7570 922 l0 -652 650 0 650 0 0 652 0 653 -320 -320 c-176 -176
-320 -324 -320 -330 0 -5 114 -124 252 -262 l253 -253 -508 0 c-279 0 -507 3
-507 7 0 5 112 120 250 258 l250 250 -325 325 -325 325 0 -653z"/>
<path d="M8167 1522 l-47 -48 50 -49 50 -49 50 49 50 49 -47 48 c-26 26 -50
48 -53 48 -3 0 -27 -22 -53 -48z"/>
<path d="M1310 1260 c0 -20 7 -20 2295 -20 2288 0 2295 0 2295 20 0 20 -7 20
-2295 20 -2288 0 -2295 0 -2295 -20z"/>
<path d="M2273 1058 c-21 -22 -23 -34 -23 -146 l0 -122 -85 0 -85 0 0 82 0 81
-25 -23 c-19 -18 -25 -34 -27 -79 l-3 -56 -98 -3 -98 -3 16 32 c52 100 -76
189 -157 109 -25 -26 -29 -36 -26 -68 3 -20 8 -45 12 -54 7 -16 0 -18 -88 -18
l-96 0 0 80 0 80 -68 0 c-58 0 -72 -3 -89 -22 -44 -47 -35 -150 16 -177 14 -8
220 -10 682 -9 l662 3 -98 103 c-53 56 -103 102 -110 102 -7 0 -18 -7 -25 -16
-11 -13 -5 -23 43 -72 32 -32 57 -61 57 -65 0 -4 -57 -6 -127 -5 l-128 3 -5
143 -5 144 -22 -24z m-485 -160 c17 -17 15 -42 -7 -69 -19 -23 -19 -24 -40 -5
-34 31 -22 86 19 86 9 0 21 -5 28 -12z m-358 -53 c0 -48 -3 -55 -19 -55 -11 0
-27 7 -35 16 -32 31 -12 94 29 94 24 0 25 -3 25 -55z"/>
<path d="M5513 1058 c-22 -23 -23 -33 -23 -171 l0 -147 207 0 208 0 -107 107
c-106 106 -107 107 -128 88 l-21 -19 56 -56 c30 -30 55 -59 55 -63 0 -4 -48
-6 -107 -5 l-108 3 -5 143 -5 144 -22 -24z"/>
<path d="M1356 1042 c-15 -18 -15 -20 4 -37 19 -17 21 -17 38 -2 17 15 19 15
35 0 15 -16 18 -15 37 2 l21 19 -20 20 c-19 19 -21 19 -39 3 -17 -16 -20 -16
-32 -2 -16 19 -23 19 -44 -3z"/>
<path d="M1736 1042 c-15 -18 -15 -20 4 -37 19 -17 21 -17 40 0 19 17 19 19 4
37 -10 10 -20 18 -24 18 -4 0 -14 -8 -24 -18z"/>
<path d="M2466 1042 c-15 -18 -15 -20 4 -37 19 -17 21 -17 40 0 19 17 19 19 4
37 -10 10 -20 18 -24 18 -4 0 -14 -8 -24 -18z"/>
<path d="M2905 1040 c-18 -19 -18 -22 -2 -37 16 -16 18 -16 37 3 20 20 20 21
2 37 -18 16 -20 16 -37 -3z"/>
<path d="M4536 1042 c-15 -18 -15 -20 4 -37 19 -17 21 -17 38 -2 17 15 19 15
35 0 15 -16 18 -15 37 2 l21 19 -20 20 c-19 19 -21 19 -39 3 -17 -16 -20 -16
-32 -2 -16 19 -23 19 -44 -3z"/>
<path d="M7225 970 l-49 -50 49 -50 49 -50 53 52 53 52 -47 48 c-26 26 -50 48
-53 48 -3 0 -28 -22 -55 -50z"/>
<path d="M5281 954 c-27 -19 -51 -71 -51 -112 0 -45 -15 -52 -119 -52 l-95 0
28 29 c26 27 27 32 16 66 -6 19 -22 43 -36 51 -33 22 -98 29 -134 14 -63 -26
-93 -105 -50 -132 11 -7 20 -16 20 -20 0 -5 -45 -8 -100 -8 l-100 0 0 80 0 80
-68 0 c-58 0 -72 -3 -89 -22 -43 -47 -37 -140 10 -173 32 -22 718 -23 737 0
11 13 14 13 27 0 23 -23 87 -19 118 8 52 44 42 162 -15 192 -38 19 -70 19 -99
-1z m73 -50 c32 -31 14 -114 -25 -114 -37 0 -48 80 -17 117 14 17 23 16 42 -3z
m-376 -10 c29 -20 28 -35 -6 -67 l-27 -26 -33 25 c-37 30 -39 37 -12 64 24 24
48 25 78 4z m-378 -49 c0 -48 -3 -55 -19 -55 -11 0 -27 7 -35 16 -32 31 -12
94 29 94 24 0 25 -3 25 -55z"/>
<path d="M2830 827 c0 -120 1 -124 26 -148 37 -35 108 -33 141 5 13 15 23 34
23 42 0 11 23 14 125 14 l125 0 0 107 0 106 -25 -23 c-21 -20 -25 -33 -25 -82
l0 -58 -84 0 c-107 0 -116 8 -116 96 l0 64 -30 0 -29 0 -3 -117 c-3 -117 -3
-118 -27 -121 -41 -6 -51 20 -51 135 l0 103 -25 0 -25 0 0 -123z"/>
<path d="M3523 928 c-16 -17 -23 -38 -25 -78 l-3 -55 -47 -3 c-43 -3 -48 -5
-48 -28 l0 -24 181 0 c166 0 183 -2 206 -20 34 -27 92 -26 122 1 21 19 32 20
229 19 l207 -1 -105 106 c-58 58 -109 104 -114 102 -5 -2 -14 -11 -20 -20 -9
-14 0 -28 49 -77 l59 -60 -125 0 c-136 0 -149 5 -149 53 0 43 -48 87 -95 87
-48 0 -95 -44 -95 -89 0 -41 -22 -51 -119 -51 l-80 0 -3 81 -3 81 -22 -24z
m346 -62 c17 -21 10 -97 -11 -109 -26 -17 -48 9 -48 57 0 58 31 86 59 52z"/>
<path d="M2075 690 c-18 -20 -18 -21 1 -41 l20 -20 19 21 c18 20 18 21 -1 41
l-20 20 -19 -21z"/>
<path d="M3225 690 c-18 -20 -18 -21 1 -41 l20 -20 19 21 c18 20 18 21 -1 41
l-20 20 -19 -21z"/>
<path d="M5705 690 c-18 -20 -18 -21 1 -41 l20 -20 19 21 c18 20 18 21 -1 41
l-20 20 -19 -21z"/>
<path d="M1996 682 c-15 -18 -15 -20 2 -35 18 -16 20 -16 37 3 14 16 15 22 5
35 -16 19 -23 19 -44 -3z"/>
<path d="M1310 380 c0 -103 1 -110 20 -110 17 0 20 7 20 45 0 45 0 45 35 45
35 0 35 0 35 -45 0 -38 3 -45 20 -45 19 0 20 7 20 110 0 103 -1 110 -20 110
-17 0 -20 -7 -20 -45 0 -45 0 -45 -35 -45 -35 0 -35 0 -35 45 0 38 -3 45 -20
45 -19 0 -20 -7 -20 -110z"/>
<path d="M1527 388 c-20 -57 -37 -106 -37 -110 0 -18 42 -7 47 12 8 29 79 29
88 0 6 -20 45 -29 45 -11 0 5 -16 55 -36 110 -48 133 -58 133 -107 -1z m72
-25 c1 -7 -8 -13 -19 -13 -23 0 -23 0 -9 37 10 26 12 27 19 8 5 -11 9 -26 9
-32z"/>
<path d="M1700 380 c0 -102 1 -110 20 -110 16 0 19 8 22 58 l3 57 18 -32 c10
-18 26 -33 35 -33 11 0 25 14 35 33 l16 32 0 -57 c1 -51 3 -58 21 -58 19 0 20
7 20 110 0 99 -2 110 -18 110 -12 0 -27 -19 -46 -57 l-28 -58 -29 58 c-21 40
-35 57 -49 57 -19 0 -20 -7 -20 -110z"/>
<path d="M1995 480 c-8 -13 -75 -193 -75 -202 0 -18 42 -7 47 12 8 29 79 29
88 0 7 -21 45 -28 45 -8 0 6 -16 55 -37 110 -33 90 -52 114 -68 88z m34 -117
c1 -7 -8 -13 -19 -13 -23 0 -23 0 -9 37 10 26 12 27 19 8 5 -11 9 -26 9 -32z"/>
<path d="M2130 380 l0 -110 46 0 c45 0 82 13 96 34 10 14 10 138 0 153 -11 18
-58 33 -103 33 l-39 0 0 -110z m98 58 c7 -7 12 -33 12 -58 0 -51 -13 -70 -47
-70 -22 0 -23 4 -23 70 0 66 1 70 23 70 13 0 28 -5 35 -12z"/>
<path d="M2400 380 l0 -110 44 0 c25 0 56 4 70 10 30 11 44 54 27 82 -8 13 -8
24 -1 38 15 28 2 66 -26 79 -14 6 -45 11 -69 11 l-45 0 0 -110z m95 45 c0 -14
-8 -21 -27 -23 -24 -3 -28 0 -28 23 0 23 4 26 28 23 19 -2 27 -9 27 -23z m8
-79 c7 -19 -12 -36 -40 -36 -18 0 -23 6 -23 25 0 21 5 25 29 25 16 0 31 -6 34
-14z"/>
<path d="M2590 380 c0 -103 1 -110 20 -110 19 0 20 7 20 110 0 103 -1 110 -20
110 -19 0 -20 -7 -20 -110z"/>
<path d="M2680 380 c0 -102 1 -110 20 -110 16 0 19 8 22 63 l3 62 43 -62 c63
-92 72 -86 72 47 0 103 -1 110 -20 110 -18 0 -20 -7 -20 -62 l0 -63 -41 63
c-27 39 -48 62 -60 62 -17 0 -19 -9 -19 -110z"/>
<path d="M2960 380 c0 -103 1 -110 20 -110 15 0 20 7 20 26 0 27 16 64 28 64
4 0 18 -20 32 -45 18 -33 31 -45 47 -45 13 0 23 3 23 6 0 3 -16 33 -35 66
l-35 59 36 45 36 44 -25 0 c-18 0 -36 -12 -58 -40 -18 -22 -36 -40 -41 -40 -4
0 -8 18 -8 40 0 33 -3 40 -20 40 -19 0 -20 -7 -20 -110z"/>
<path d="M3160 380 c0 -103 1 -110 20 -110 17 0 20 7 20 45 0 45 0 45 35 45
35 0 35 0 35 -45 0 -38 3 -45 20 -45 19 0 20 7 20 110 0 103 -1 110 -20 110
-17 0 -20 -7 -20 -45 0 -45 0 -45 -35 -45 -35 0 -35 0 -35 45 0 38 -3 45 -20
45 -19 0 -20 -7 -20 -110z"/>
<path d="M3416 482 c-6 -9 -76 -202 -76 -208 0 -14 41 0 50 16 7 14 21 20 45
20 25 0 35 -5 40 -20 4 -13 15 -20 30 -20 l25 0 -34 93 c-19 50 -37 100 -41
110 -7 18 -30 23 -39 9z m33 -102 c9 -28 8 -30 -14 -30 -22 0 -23 2 -14 30 6
17 12 30 14 30 2 0 8 -13 14 -30z"/>
<path d="M3550 380 l0 -110 70 0 c63 0 70 2 70 19 0 17 -8 20 -47 23 l-48 3
-3 88 c-3 79 -5 87 -22 87 -19 0 -20 -7 -20 -110z"/>
<path d="M3720 380 c0 -103 1 -110 20 -110 19 0 20 7 20 110 0 103 -1 110 -20
110 -19 0 -20 -7 -20 -110z"/>
<path d="M3810 380 l0 -110 25 0 c23 0 25 4 25 45 l0 45 40 0 c33 0 40 3 40
20 0 17 -7 20 -40 20 -36 0 -40 3 -40 25 0 23 4 25 45 25 38 0 45 3 45 20 0
18 -7 20 -70 20 l-70 0 0 -110z"/>
<path d="M4006 388 c-20 -57 -36 -106 -36 -110 0 -17 39 -7 45 12 9 29 80 29
88 0 5 -19 47 -30 47 -12 0 4 -16 53 -37 110 -27 73 -42 102 -54 102 -12 0
-26 -28 -53 -102z m73 -25 c1 -7 -8 -13 -19 -13 -23 0 -23 0 -9 37 10 26 12
27 19 8 5 -11 9 -26 9 -32z"/>
<path d="M5340 477 c-18 -9 -26 -22 -28 -48 -3 -41 12 -58 61 -68 35 -8 49
-37 21 -48 -9 -3 -29 -2 -45 4 -26 10 -49 2 -49 -18 0 -14 61 -31 92 -25 44 9
58 23 58 61 0 38 -17 55 -63 64 -23 5 -32 12 -32 26 0 16 7 20 37 20 53 0 68
19 27 34 -40 14 -48 14 -79 -2z"/>
<path d="M4270 400 c0 -73 3 -83 25 -105 13 -14 32 -25 42 -25 69 1 93 37 93
140 0 68 -1 70 -25 70 -23 0 -24 -2 -27 -82 -3 -73 -5 -83 -22 -86 -31 -6 -46
26 -46 100 0 61 -2 68 -20 68 -18 0 -20 -7 -20 -80z"/>
<path d="M4470 375 c0 -97 1 -105 20 -105 16 0 19 8 22 62 l3 63 40 -63 c24
-37 47 -62 58 -62 15 0 17 12 17 105 0 97 -1 105 -20 105 -16 0 -19 -8 -22
-57 l-3 -57 -38 57 c-24 38 -44 57 -57 57 -19 0 -20 -7 -20 -105z"/>
<path d="M4680 375 c0 -98 1 -105 20 -105 19 0 20 7 20 105 0 98 -1 105 -20
105 -19 0 -20 -7 -20 -105z"/>
<path d="M4751 468 c1 -35 66 -193 79 -196 12 -2 24 23 48 96 17 54 32 101 32
105 0 4 -9 7 -20 7 -15 0 -24 -14 -39 -62 -10 -35 -21 -56 -24 -48 -3 8 -12
35 -19 60 -11 33 -20 46 -36 48 -13 2 -22 -2 -21 -10z"/>
<path d="M4950 375 l0 -105 65 0 c58 0 65 2 65 20 0 17 -7 20 -45 20 -41 0
-45 2 -45 25 0 23 4 25 40 25 33 0 40 3 40 20 0 17 -7 20 -40 20 -36 0 -40 3
-40 25 0 23 4 25 45 25 33 0 45 4 45 15 0 12 -14 15 -65 15 l-65 0 0 -105z"/>
<path d="M5120 375 c0 -97 1 -105 19 -105 16 0 20 8 23 42 4 57 23 58 50 4 17
-35 28 -46 45 -46 28 0 28 1 2 51 -19 37 -19 42 -5 58 9 10 16 29 16 44 0 42
-24 57 -91 57 l-59 0 0 -105z m104 52 c8 -14 8 -20 -4 -27 -36 -23 -70 -1 -56
36 8 20 45 15 60 -9z"/>
<path d="M5490 375 c0 -98 1 -105 20 -105 19 0 20 7 20 105 0 98 -1 105 -20
105 -19 0 -20 -7 -20 -105z"/>
<path d="M5560 466 c0 -9 12 -16 28 -18 27 -3 27 -3 30 -90 3 -80 5 -88 22
-88 18 0 20 7 20 90 0 89 0 90 25 90 16 0 25 6 25 15 0 12 -15 15 -75 15 -58
0 -75 -3 -75 -14z"/>
<path d="M5740 475 c0 -3 14 -32 30 -65 19 -37 30 -75 30 -100 0 -33 3 -40 20
-40 17 0 20 7 20 45 0 31 10 65 30 105 l30 60 -23 0 c-17 0 -28 -10 -41 -37
l-18 -38 -19 38 c-13 24 -26 37 -39 37 -11 0 -20 -2 -20 -5z"/>
<path d="M8165 150 l-50 -50 53 -53 52 -52 52 52 53 53 -50 50 c-27 27 -52 50
-55 50 -3 0 -28 -23 -55 -50z"/>
</g>
</svg>
